<svg xmlns="http://www.w3.org/2000/svg" xmlns:xlink="http://www.w3.org/1999/xlink" width="20" height="20" viewBox="0 0 50 50">
  <defs>
    <clipPath id="clip-Delete_icon">
      <rect width="50" height="50"/>
    </clipPath>
  </defs>
  <g id="Delete_icon" data-name="Delete icon" clip-path="url(#clip-Delete_icon)">
    <path id="Subtraction_20" data-name="Subtraction 20" d="M27.007,44.562H7.366a4.815,4.815,0,0,1-1.907-.391,4.965,4.965,0,0,1-3-4.561V9.9H31.917V39.611a4.971,4.971,0,0,1-3,4.561A4.815,4.815,0,0,1,27.007,44.562Zm-4.183-28.9h0v21.9H25.2v-21.9Zm-6.815,0h0v21.9h2.378v-21.9Zm-6.816,0h0v21.9h2.378v-21.9ZM34.372,7.427H0V2.476H8.593L11.048,0H23.324l2.455,2.476h8.593V7.427Z" transform="translate(8 3)" fill="#ff2a2a"/>
  </g>
</svg>
