<svg id="EMPIcon" xmlns="http://www.w3.org/2000/svg" xmlns:xlink="http://www.w3.org/1999/xlink" width="26.218" height="25.889" viewBox="0 0 26.218 25.889">
  <defs>
    <clipPath id="clip-path">
      <rect id="Rectangle_5580" data-name="Rectangle 5580" width="26.218" height="25.889" fill="none"/>
    </clipPath>
  </defs>
  <g id="Group_4285" data-name="Group 4285" transform="translate(0 0)" clip-path="url(#clip-path)">
    <path id="Path_36609" data-name="Path 36609" d="M3.958,0c.13,0,.259.006.388.019A3.7,3.7,0,0,1,4.73.076a3.881,3.881,0,0,1,.377.094c.124.037.246.081.366.131s.236.1.351.166a3.764,3.764,0,0,1,.333.2A3.712,3.712,0,0,1,6.468.9a3.872,3.872,0,0,1,.548.548,3.712,3.712,0,0,1,.231.312,3.764,3.764,0,0,1,.2.333c.061.115.116.231.166.351s.094.242.131.366a3.881,3.881,0,0,1,.094.377A3.7,3.7,0,0,1,7.9,3.57c.013.129.019.258.019.388s-.006.259-.019.388a3.7,3.7,0,0,1-.057.384,3.881,3.881,0,0,1-.094.377c-.037.124-.081.246-.131.366s-.1.236-.166.351a3.764,3.764,0,0,1-.2.333,3.712,3.712,0,0,1-.231.312,3.872,3.872,0,0,1-.548.548,3.712,3.712,0,0,1-.312.231,3.764,3.764,0,0,1-.333.2c-.115.061-.231.116-.351.166s-.242.094-.366.131a3.881,3.881,0,0,1-.377.094,3.7,3.7,0,0,1-.384.057c-.129.013-.258.019-.388.019S3.7,7.909,3.57,7.9a3.7,3.7,0,0,1-.384-.057,3.881,3.881,0,0,1-.377-.094c-.124-.037-.246-.081-.366-.131s-.236-.1-.351-.166a3.764,3.764,0,0,1-.333-.2,3.712,3.712,0,0,1-.312-.231A3.872,3.872,0,0,1,.9,6.468a3.712,3.712,0,0,1-.231-.312,3.764,3.764,0,0,1-.2-.333C.406,5.708.351,5.592.3,5.472S.208,5.23.171,5.106A3.881,3.881,0,0,1,.076,4.73a3.7,3.7,0,0,1-.057-.384C.006,4.216,0,4.087,0,3.958S.006,3.7.019,3.57a3.7,3.7,0,0,1,.057-.384,3.881,3.881,0,0,1,.094-.377c.037-.124.081-.246.131-.366s.1-.236.166-.351a3.764,3.764,0,0,1,.2-.333A3.712,3.712,0,0,1,.9,1.447,3.872,3.872,0,0,1,1.447.9,3.712,3.712,0,0,1,1.759.667a3.764,3.764,0,0,1,.333-.2C2.207.406,2.323.351,2.443.3s.242-.094.366-.131A3.881,3.881,0,0,1,3.186.076,3.7,3.7,0,0,1,3.57.019C3.7.006,3.828,0,3.958,0" transform="translate(0 0)" fill="#16c79b"/>
    <path id="Path_36610" data-name="Path 36610" d="M17.8.419c.1,0,.2,0,.307.015a3.056,3.056,0,0,1,.3.046c.1.02.2.045.3.074s.194.065.29.1.187.083.278.131.178.1.264.158.168.118.247.183a2.97,2.97,0,0,1,.227.206c.072.072.142.149.207.228s.126.161.183.246a3.166,3.166,0,0,1,.29.542c.039.094.074.191.1.29s.054.2.075.3.035.2.045.3.015.2.015.307,0,.205-.015.308-.025.2-.045.3-.045.2-.075.3-.065.194-.1.29-.083.187-.131.278a2.884,2.884,0,0,1-.158.264c-.057.086-.118.168-.183.247s-.135.155-.207.228-.148.141-.227.206-.162.126-.247.183-.173.109-.264.157-.183.093-.278.132-.192.073-.29.1a3,3,0,0,1-.3.075,2.841,2.841,0,0,1-.3.045c-.1.01-.2.016-.307.016s-.2-.006-.307-.016a2.841,2.841,0,0,1-.3-.045,3,3,0,0,1-.3-.075c-.1-.03-.194-.065-.29-.1s-.187-.083-.278-.132-.178-.1-.264-.157-.168-.118-.247-.183-.155-.134-.227-.206-.142-.149-.207-.228-.126-.161-.183-.247a2.884,2.884,0,0,1-.158-.264c-.049-.09-.092-.183-.131-.278s-.074-.191-.1-.29-.054-.2-.075-.3-.035-.2-.045-.3-.015-.2-.015-.308,0-.2.015-.307.025-.2.045-.3.045-.2.075-.3.065-.2.1-.29a3.166,3.166,0,0,1,.29-.542c.057-.085.118-.168.183-.246s.135-.156.207-.228.149-.142.227-.206S15.975,1,16.06.947s.173-.109.264-.158S16.507.7,16.6.657s.192-.074.29-.1.2-.054.3-.074a3.056,3.056,0,0,1,.3-.046c.1-.01.2-.015.307-.015" transform="translate(-3.125 -0.089)" fill="#16c79b"/>
    <path id="Path_36611" data-name="Path 36611" d="M29.632.419A2.486,2.486,0,0,1,30.1.465c.076.016.153.035.227.057s.149.049.221.079a2.267,2.267,0,0,1,.212.1c.069.037.136.077.2.12a2.343,2.343,0,0,1,.189.14c.06.05.118.1.173.157a2.2,2.2,0,0,1,.158.174c.05.061.1.124.139.188a2.277,2.277,0,0,1,.121.2c.037.069.07.14.1.212s.057.146.079.22.042.151.057.228.027.154.035.232.011.156.011.234,0,.157-.011.235-.02.156-.035.232-.035.153-.057.227-.05.149-.079.221-.063.143-.1.212a2.265,2.265,0,0,1-.121.2,2.334,2.334,0,0,1-.139.189c-.05.061-.1.118-.158.174s-.113.108-.173.157-.124.1-.189.14-.132.083-.2.12a2.443,2.443,0,0,1-.433.179,2.285,2.285,0,0,1-.227.057,2.379,2.379,0,0,1-.933,0,2.286,2.286,0,0,1-.227-.057,2.443,2.443,0,0,1-.433-.179c-.069-.037-.136-.077-.2-.12s-.128-.09-.189-.14-.118-.1-.173-.157a2.29,2.29,0,0,1-.3-.363,2.263,2.263,0,0,1-.121-.2c-.037-.069-.07-.14-.1-.212s-.057-.146-.079-.221-.042-.15-.057-.227-.027-.154-.035-.232-.011-.156-.011-.235,0-.156.011-.234.02-.156.035-.232.035-.153.057-.228.05-.148.079-.22.063-.143.1-.212a2.276,2.276,0,0,1,.121-.2c.043-.065.09-.127.139-.188a2.2,2.2,0,0,1,.158-.174c.055-.055.113-.108.173-.157A2.344,2.344,0,0,1,28.3.822c.065-.043.132-.083.2-.12a2.268,2.268,0,0,1,.212-.1c.072-.03.146-.056.221-.079s.151-.042.227-.057a2.486,2.486,0,0,1,.467-.046" transform="translate(-5.804 -0.089)" fill="#16c79b"/>
    <path id="Path_36612" data-name="Path 36612" d="M3.958,11.525c.13,0,.259.006.388.019a3.7,3.7,0,0,1,.384.057,3.882,3.882,0,0,1,.377.094c.124.037.246.081.366.131s.236.1.351.166a3.765,3.765,0,0,1,.333.2,3.711,3.711,0,0,1,.312.231,3.772,3.772,0,0,1,.288.26,3.613,3.613,0,0,1,.26.288,3.712,3.712,0,0,1,.231.312,3.764,3.764,0,0,1,.2.333c.061.115.116.231.166.351s.094.242.131.366a3.882,3.882,0,0,1,.094.377,3.7,3.7,0,0,1,.057.384c.013.129.019.258.019.388s-.006.259-.019.388a3.7,3.7,0,0,1-.057.384,3.881,3.881,0,0,1-.094.377c-.037.124-.081.246-.131.366s-.1.236-.166.351a3.764,3.764,0,0,1-.2.333,3.712,3.712,0,0,1-.231.312,3.871,3.871,0,0,1-.548.548,3.71,3.71,0,0,1-.312.231,3.763,3.763,0,0,1-.333.2c-.115.061-.231.116-.351.166s-.242.094-.366.131a3.879,3.879,0,0,1-.377.094,3.7,3.7,0,0,1-.384.057c-.129.013-.258.019-.388.019s-.259-.006-.388-.019a3.7,3.7,0,0,1-.384-.057,3.879,3.879,0,0,1-.377-.094c-.124-.037-.246-.081-.366-.131s-.236-.1-.351-.166a3.763,3.763,0,0,1-.333-.2,3.71,3.71,0,0,1-.312-.231A3.871,3.871,0,0,1,.9,17.993a3.712,3.712,0,0,1-.231-.312,3.763,3.763,0,0,1-.2-.333C.406,17.233.351,17.117.3,17s-.094-.242-.131-.366a3.881,3.881,0,0,1-.094-.377,3.7,3.7,0,0,1-.057-.384C.006,15.741,0,15.612,0,15.483s.006-.259.019-.388a3.7,3.7,0,0,1,.057-.384,3.881,3.881,0,0,1,.094-.377c.037-.124.081-.246.131-.366s.1-.236.166-.351a3.764,3.764,0,0,1,.2-.333A3.712,3.712,0,0,1,.9,12.972a3.613,3.613,0,0,1,.26-.288,3.772,3.772,0,0,1,.288-.26,3.711,3.711,0,0,1,.312-.231,3.765,3.765,0,0,1,.333-.2c.115-.061.231-.116.351-.166s.242-.094.366-.131a3.882,3.882,0,0,1,.377-.094,3.7,3.7,0,0,1,.384-.057c.129-.013.258-.019.388-.019" transform="translate(0 -2.456)" fill="#16c79b"/>
    <path id="Path_36613" data-name="Path 36613" d="M17.8,11.944c.1,0,.2,0,.307.015s.2.024.3.043.2.044.3.073.194.062.29.1.187.081.278.128.178.1.264.153.168.115.247.179.155.131.227.2.142.145.207.222.126.157.183.241a2.772,2.772,0,0,1,.158.257,2.957,2.957,0,0,1,.131.271c.039.092.074.187.1.282s.054.193.075.29.035.2.045.3a2.99,2.99,0,0,1,0,.6c-.01.1-.025.2-.045.3s-.045.194-.075.29-.065.19-.1.282a2.957,2.957,0,0,1-.131.271,2.772,2.772,0,0,1-.158.257c-.057.083-.118.164-.183.241s-.135.151-.207.222-.148.138-.227.2-.162.123-.247.179-.173.106-.264.153-.183.09-.278.128-.192.072-.29.1-.2.054-.3.073-.2.034-.3.043-.2.015-.307.015-.2,0-.307-.015-.2-.024-.3-.043-.2-.044-.3-.073-.194-.062-.29-.1-.187-.081-.278-.128-.178-.1-.264-.153-.168-.115-.247-.179-.155-.131-.227-.2-.142-.145-.207-.222-.126-.157-.183-.241a2.772,2.772,0,0,1-.158-.257,2.957,2.957,0,0,1-.131-.271c-.039-.092-.074-.187-.1-.282s-.054-.193-.075-.29-.035-.2-.045-.3a2.991,2.991,0,0,1,0-.6c.01-.1.025-.2.045-.3s.045-.194.075-.29.065-.19.1-.282a2.958,2.958,0,0,1,.131-.271A2.772,2.772,0,0,1,15.2,13.3c.057-.083.118-.164.183-.241s.135-.151.207-.222.149-.138.227-.2.162-.123.247-.179.173-.106.264-.153.183-.09.278-.128.192-.072.29-.1.2-.054.3-.073.2-.034.3-.043.2-.015.307-.015" transform="translate(-3.125 -2.545)" fill="#16c79b"/>
    <path id="Path_36614" data-name="Path 36614" d="M3.958,22.84c.13,0,.259.006.388.019a3.7,3.7,0,0,1,.384.057,3.882,3.882,0,0,1,.377.094c.124.037.246.081.366.131s.236.1.351.166a3.765,3.765,0,0,1,.333.2,3.713,3.713,0,0,1,.312.231,3.87,3.87,0,0,1,.548.549,3.712,3.712,0,0,1,.231.312,3.764,3.764,0,0,1,.2.333c.061.115.116.231.166.351s.094.242.131.366a3.881,3.881,0,0,1,.094.377,3.7,3.7,0,0,1,.057.384c.013.129.019.258.019.388s-.006.259-.019.388a3.7,3.7,0,0,1-.057.384,3.882,3.882,0,0,1-.094.377c-.037.124-.081.246-.131.366s-.1.236-.166.351a3.765,3.765,0,0,1-.2.333,3.712,3.712,0,0,1-.231.312,3.872,3.872,0,0,1-.548.548,3.713,3.713,0,0,1-.312.231,3.764,3.764,0,0,1-.333.2c-.115.061-.231.116-.351.166s-.242.094-.366.131a3.882,3.882,0,0,1-.377.094,3.7,3.7,0,0,1-.384.057c-.129.013-.258.019-.388.019s-.259-.006-.388-.019a3.7,3.7,0,0,1-.384-.057,3.882,3.882,0,0,1-.377-.094c-.124-.037-.246-.081-.366-.131s-.236-.1-.351-.166a3.764,3.764,0,0,1-.333-.2,3.713,3.713,0,0,1-.312-.231A3.872,3.872,0,0,1,.9,29.308,3.712,3.712,0,0,1,.667,29a3.765,3.765,0,0,1-.2-.333c-.061-.115-.116-.231-.166-.351s-.094-.242-.131-.366a3.882,3.882,0,0,1-.094-.377,3.7,3.7,0,0,1-.057-.384C.006,27.056,0,26.927,0,26.8s.006-.259.019-.388a3.7,3.7,0,0,1,.057-.384,3.88,3.88,0,0,1,.094-.377c.037-.124.081-.246.131-.366s.1-.236.166-.351a3.764,3.764,0,0,1,.2-.333A3.711,3.711,0,0,1,.9,24.287a3.87,3.87,0,0,1,.548-.549,3.713,3.713,0,0,1,.312-.231,3.764,3.764,0,0,1,.333-.2c.115-.061.231-.116.351-.166s.242-.094.366-.131a3.882,3.882,0,0,1,.377-.094,3.7,3.7,0,0,1,.384-.057c.129-.013.258-.019.388-.019" transform="translate(0 -4.866)" fill="#16c79b"/>
  </g>
</svg>
