<svg xmlns="http://www.w3.org/2000/svg" width="17.023" height="16.785" viewBox="0 0 26.253 16.707">
  <path id="TeamIcon" d="M18.9,12.16a3.58,3.58,0,1,0-3.58-3.58A3.565,3.565,0,0,0,18.9,12.16Zm-9.547,0a3.58,3.58,0,1,0-3.58-3.58A3.565,3.565,0,0,0,9.353,12.16Zm0,2.387c-2.78,0-8.353,1.4-8.353,4.177v2.983H17.707V18.723C17.707,15.943,12.134,14.547,9.353,14.547Zm9.547,0c-.346,0-.74.024-1.158.06a5.036,5.036,0,0,1,2.351,4.117v2.983h7.16V18.723C27.253,15.943,21.68,14.547,18.9,14.547Z" transform="translate(-1 -5)" fill="#98a2b3"/>
</svg>
